<svg width="14" height="14" viewBox="0 0 14 14" fill="none" xmlns="http://www.w3.org/2000/svg">
<path fill-rule="evenodd" clip-rule="evenodd" d="M13.4 6.99123C13.4 7.42404 13.3559 7.85626 13.2694 8.27758C13.185 8.68888 13.06 9.09268 12.8962 9.4787C12.7362 9.85789 12.5378 10.2233 12.3059 10.5641C12.0774 10.9027 11.8143 11.2204 11.5252 11.5099C11.2355 11.7983 10.9167 12.0607 10.5783 12.2901C10.2364 12.5204 9.87047 12.7186 9.49106 12.8793C9.10448 13.0422 8.69975 13.167 8.2888 13.2513C7.86693 13.338 7.43313 13.3823 6.99969 13.3823C6.56592 13.3823 6.13215 13.338 5.71088 13.2513C5.2993 13.167 4.89459 13.0422 4.50832 12.8793C4.12893 12.7186 3.76264 12.5204 3.42076 12.2901C3.0823 12.0607 2.76354 11.7983 2.47446 11.5099C2.18508 11.2204 1.92193 10.9027 1.69317 10.5641C1.46253 10.2233 1.26376 9.85787 1.10313 9.4787C0.939356 9.09268 0.814055 8.68886 0.72936 8.27758C0.643738 7.85626 0.599976 7.42404 0.599976 6.99123C0.599976 6.55808 0.643713 6.12494 0.729385 5.70455C0.81408 5.29324 0.939381 4.88882 1.10316 4.50342C1.26378 4.12396 1.46256 3.75823 1.69319 3.41744C1.92195 3.07854 2.18511 2.76147 2.47449 2.47155C2.76357 2.18319 3.08233 1.92139 3.42078 1.69234C3.76267 1.46108 4.12895 1.26295 4.50834 1.10191C4.89462 0.938663 5.2993 0.813543 5.7109 0.729921C6.13217 0.643797 6.56594 0.600098 6.99971 0.600098C7.43316 0.600098 7.86693 0.643797 8.28882 0.729921C8.69977 0.813568 9.10448 0.938689 9.49109 1.10191C9.87047 1.26292 10.2364 1.46108 10.5783 1.69234C10.9168 1.92139 11.2356 2.18319 11.5252 2.47155C11.8143 2.76147 12.0775 3.07854 12.3059 3.41744C12.5378 3.75823 12.7362 4.12398 12.8962 4.50342C13.06 4.88882 13.185 5.29324 13.2694 5.70455C13.3559 6.12494 13.4 6.55808 13.4 6.99123ZM4.66766 2.05463C3.14351 2.77334 2.00595 4.17575 1.65124 5.86591C1.79533 5.86716 4.07295 5.89587 6.69713 5.19963C5.75116 3.52133 4.74049 2.15171 4.66766 2.05463ZM7.14997 6.04006C4.33577 6.88136 1.6353 6.82082 1.53844 6.8171C1.53686 6.87575 1.53405 6.93254 1.53405 6.99122C1.53405 8.39331 2.06376 9.67153 2.93444 10.638C2.93256 10.6352 4.42828 7.98546 7.3778 7.03304C7.44904 7.00933 7.52156 6.98809 7.59343 6.96751C7.45626 6.65733 7.30653 6.34651 7.14997 6.04006ZM10.6092 2.89504C9.64698 2.04776 8.3835 1.53382 6.99967 1.53382C6.55558 1.53382 6.12461 1.5875 5.71179 1.68673C5.79365 1.79659 6.82028 3.15656 7.75501 4.8704C9.81732 4.09837 10.5958 2.915 10.6092 2.89504ZM7.96599 7.87187C7.95382 7.8759 7.94165 7.87937 7.92975 7.88373C4.70494 9.00632 3.65184 11.2687 3.64045 11.2934C4.56833 12.0139 5.73214 12.4486 6.99971 12.4486C7.7566 12.4486 8.47757 12.2947 9.13354 12.0161C9.0526 11.5393 8.73509 9.86785 7.96599 7.87187ZM10.0539 11.5174C11.2811 10.6905 12.1527 9.37729 12.3959 7.85624C12.2834 7.82004 10.7542 7.33664 8.99006 7.61908C9.70697 9.58636 9.99825 11.1885 10.0539 11.5174ZM8.1757 5.68366C8.30256 5.94393 8.4254 6.20883 8.53883 6.47505C8.57916 6.57056 8.61854 6.66418 8.65697 6.75779C10.5346 6.52185 12.3843 6.9188 12.4634 6.93501C12.4509 5.64121 11.9874 4.45379 11.2206 3.52416C11.2102 3.5388 10.3336 4.80361 8.1757 5.68366Z" fill="#515151"/>
</svg>
