<svg width="14" height="14" viewBox="0 0 14 14" fill="none" xmlns="http://www.w3.org/2000/svg">
<path fill-rule="evenodd" clip-rule="evenodd" d="M7.00058 0.600098C5.26242 0.600098 5.04429 0.607698 4.36161 0.638765C3.68027 0.669965 3.2152 0.777833 2.80827 0.936101C2.38733 1.09957 2.03026 1.31824 1.67452 1.67411C1.31852 2.02985 1.09985 2.38692 0.935846 2.80772C0.777177 3.21479 0.669176 3.68 0.638509 4.36107C0.607976 5.04374 0.599976 5.26201 0.599976 7.00016C0.599976 8.73831 0.607709 8.95578 0.638643 9.63846C0.669976 10.3198 0.777844 10.7849 0.935979 11.1918C1.09958 11.6127 1.31825 11.9698 1.67412 12.3256C2.02972 12.6816 2.38679 12.9008 2.80747 13.0642C3.21467 13.2225 3.67987 13.3304 4.36108 13.3616C5.04376 13.3926 5.26176 13.4002 6.99978 13.4002C8.73806 13.4002 8.95553 13.3926 9.6382 13.3616C10.3195 13.3304 10.7851 13.2225 11.1924 13.0642C11.6132 12.9008 11.9697 12.6816 12.3253 12.3256C12.6813 11.9698 12.9 11.6127 13.064 11.1919C13.2213 10.7849 13.3293 10.3197 13.3613 9.63859C13.392 8.95592 13.4 8.73831 13.4 7.00016C13.4 5.26201 13.392 5.04388 13.3613 4.3612C13.3293 3.67986 13.2213 3.21479 13.064 2.80785C12.9 2.38692 12.6813 2.02985 12.3253 1.67411C11.9693 1.31811 11.6133 1.09944 11.192 0.936101C10.7839 0.777833 10.3186 0.669965 9.63727 0.638765C8.9546 0.607698 8.73726 0.600098 6.99858 0.600098H7.00058ZM6.42641 1.75343C6.59681 1.75316 6.78695 1.75343 7.00055 1.75343C8.70937 1.75343 8.9119 1.75956 9.58671 1.79023C10.2107 1.81876 10.5494 1.92303 10.775 2.01063C11.0737 2.12663 11.2866 2.2653 11.5105 2.4893C11.7345 2.7133 11.8731 2.92664 11.9894 3.22531C12.077 3.45064 12.1814 3.78931 12.2098 4.41332C12.2405 5.08799 12.2471 5.29066 12.2471 6.99868C12.2471 8.7067 12.2405 8.90937 12.2098 9.58404C12.1813 10.208 12.077 10.5467 11.9894 10.7721C11.8734 11.0707 11.7345 11.2834 11.5105 11.5073C11.2865 11.7313 11.0738 11.8699 10.775 11.9859C10.5497 12.0739 10.2107 12.1779 9.58671 12.2065C8.91203 12.2371 8.70937 12.2438 7.00055 12.2438C5.2916 12.2438 5.08906 12.2371 4.41439 12.2065C3.79038 12.1777 3.45171 12.0734 3.22598 11.9858C2.92731 11.8698 2.71397 11.7311 2.48997 11.5071C2.26597 11.2831 2.1273 11.0703 2.01103 10.7715C1.92343 10.5462 1.81903 10.2075 1.79063 9.58351C1.75996 8.90883 1.75383 8.70616 1.75383 6.99708C1.75383 5.28799 1.75996 5.08639 1.79063 4.41172C1.81916 3.78771 1.92343 3.44904 2.01103 3.22344C2.12703 2.92477 2.26597 2.71143 2.48997 2.48743C2.71397 2.26343 2.92731 2.12476 3.22598 2.00849C3.45158 1.92049 3.79038 1.81649 4.41439 1.78783C5.00479 1.76116 5.2336 1.75316 6.42641 1.75182V1.75343ZM10.4169 2.81611C9.99285 2.81611 9.64885 3.15971 9.64885 3.58385C9.64885 4.00785 9.99285 4.35185 10.4169 4.35185C10.8409 4.35185 11.1849 4.00785 11.1849 3.58385C11.1849 3.15984 10.8409 2.81611 10.4169 2.81611ZM7.00059 3.71345C5.1855 3.71345 3.71389 5.18506 3.71389 7.00015C3.71389 8.81523 5.1855 10.2862 7.00059 10.2862C8.81567 10.2862 10.2868 8.81523 10.2868 7.00015C10.2868 5.18506 8.81567 3.71345 7.00059 3.71345ZM7.00056 4.86679C8.17871 4.86679 9.13392 5.82187 9.13392 7.00015C9.13392 8.17829 8.17871 9.1335 7.00056 9.1335C5.82228 9.1335 4.86721 8.17829 4.86721 7.00015C4.86721 5.82187 5.82228 4.86679 7.00056 4.86679Z" fill="#515151"/>
</svg>
