<svg aria-hidden="true" style="position: absolute; width: 0; height: 0; overflow: hidden;" version="1.1" xmlns="http://www.w3.org/2000/svg" xmlns:xlink="http://www.w3.org/1999/xlink">
<defs>
<symbol id="icon-dribble" viewBox="0 0 32 32">
<path d="M30.629 15.98c0 0.989-0.101 1.977-0.299 2.94-0.193 0.94-0.479 1.863-0.853 2.745-0.366 0.867-0.819 1.702-1.349 2.481-0.522 0.774-1.124 1.5-1.784 2.162-0.662 0.659-1.391 1.259-2.164 1.783-0.782 0.526-1.618 0.979-2.485 1.347-0.884 0.372-1.809 0.658-2.748 0.85-0.964 0.198-1.956 0.299-2.947 0.299s-1.983-0.101-2.946-0.299c-0.941-0.193-1.866-0.478-2.749-0.85-0.867-0.367-1.704-0.82-2.486-1.347-0.774-0.524-1.502-1.124-2.163-1.783-0.661-0.662-1.263-1.388-1.786-2.162-0.527-0.779-0.982-1.614-1.349-2.481-0.374-0.882-0.661-1.805-0.854-2.745-0.196-0.963-0.296-1.951-0.296-2.94s0.1-1.98 0.296-2.941c0.194-0.94 0.48-1.865 0.854-2.745 0.367-0.867 0.821-1.703 1.349-2.482 0.523-0.775 1.124-1.499 1.786-2.162 0.661-0.659 1.389-1.258 2.163-1.781 0.781-0.529 1.619-0.981 2.486-1.35 0.883-0.373 1.808-0.659 2.749-0.85 0.963-0.197 1.954-0.297 2.946-0.297s1.982 0.1 2.947 0.297c0.939 0.191 1.864 0.477 2.748 0.85 0.867 0.368 1.704 0.821 2.485 1.35 0.774 0.524 1.502 1.122 2.164 1.781 0.661 0.663 1.262 1.387 1.784 2.162 0.53 0.779 0.984 1.615 1.349 2.482 0.374 0.881 0.66 1.805 0.853 2.745 0.198 0.961 0.299 1.951 0.299 2.941zM10.669 4.696c-3.484 1.643-6.084 4.848-6.895 8.711 0.329 0.003 5.535 0.068 11.533-1.523-2.162-3.836-4.472-6.967-4.639-7.189zM16.343 13.806c-6.432 1.923-12.605 1.785-12.826 1.776-0.004 0.134-0.010 0.264-0.010 0.398 0 3.205 1.211 6.126 3.201 8.335-0.004-0.006 3.415-6.063 10.156-8.24 0.163-0.054 0.329-0.103 0.493-0.15-0.314-0.709-0.656-1.419-1.014-2.12zM24.25 6.617c-2.199-1.937-5.087-3.111-8.25-3.111-1.015 0-2 0.123-2.944 0.349 0.187 0.251 2.534 3.36 4.67 7.277 4.714-1.765 6.493-4.47 6.524-4.515zM18.208 17.993c-0.028 0.009-0.056 0.017-0.083 0.027-7.371 2.566-9.778 7.737-9.804 7.794 2.121 1.647 4.781 2.64 7.678 2.64 1.73 0 3.378-0.352 4.877-0.989-0.185-1.090-0.911-4.91-2.669-9.473zM22.98 26.326c2.805-1.89 4.797-4.892 5.353-8.368-0.257-0.083-3.752-1.188-7.785-0.542 1.639 4.497 2.304 8.159 2.432 8.91zM18.687 12.991c0.29 0.595 0.571 1.2 0.83 1.809 0.092 0.218 0.182 0.432 0.27 0.646 4.292-0.539 8.52 0.368 8.7 0.405-0.029-2.957-1.088-5.671-2.841-7.796-0.024 0.033-2.027 2.924-6.96 4.936z"></path>
</symbol>
<symbol id="icon-facebook" viewBox="0 0 20 32">
<path d="M12.704 30.979v-14.108h5.792l0.861-5.524h-6.653v-3.518c0-1.594 0.54-2.685 3.324-2.685h3.527v-4.925c-1.716-0.151-3.441-0.224-5.167-0.219-5.119 0-8.634 2.568-8.634 7.283v4.054h-5.754v5.524h5.767v14.118h6.937z"></path>
</symbol>
<symbol id="icon-instagram" viewBox="0 0 32 32">
<path d="M16.001 1.372c-3.973 0-4.472 0.017-6.032 0.088-1.557 0.071-2.62 0.318-3.55 0.68-0.962 0.374-1.778 0.873-2.591 1.687s-1.314 1.629-1.688 2.591c-0.363 0.93-0.61 1.994-0.68 3.55-0.070 1.56-0.088 2.059-0.088 6.032s0.018 4.47 0.088 6.030c0.072 1.557 0.318 2.62 0.68 3.55 0.374 0.962 0.874 1.778 1.687 2.592s1.629 1.315 2.59 1.688c0.931 0.362 1.994 0.608 3.551 0.68 1.56 0.071 2.059 0.088 6.031 0.088s4.47-0.017 6.031-0.088c1.557-0.071 2.622-0.318 3.552-0.68 0.962-0.373 1.777-0.875 2.59-1.688s1.314-1.63 1.688-2.591c0.36-0.93 0.606-1.994 0.68-3.55 0.070-1.56 0.088-2.058 0.088-6.031s-0.018-4.471-0.088-6.032c-0.073-1.557-0.32-2.62-0.68-3.55-0.375-0.962-0.875-1.778-1.688-2.591s-1.627-1.314-2.59-1.687c-0.933-0.362-1.996-0.608-3.554-0.68-1.56-0.071-2.057-0.088-6.031-0.088h0.005zM14.689 4.008c0.389-0.001 0.824 0 1.312 0 3.906 0 4.369 0.014 5.911 0.084 1.426 0.065 2.2 0.304 2.716 0.504 0.683 0.265 1.169 0.582 1.681 1.094s0.829 1 1.095 1.682c0.2 0.515 0.439 1.289 0.504 2.715 0.070 1.542 0.085 2.005 0.085 5.909s-0.015 4.367-0.085 5.909c-0.065 1.426-0.304 2.2-0.504 2.716-0.265 0.683-0.583 1.169-1.095 1.68s-0.998 0.829-1.681 1.094c-0.515 0.201-1.29 0.439-2.716 0.504-1.542 0.070-2.005 0.085-5.911 0.085s-4.369-0.015-5.911-0.085c-1.426-0.066-2.2-0.304-2.716-0.504-0.683-0.265-1.17-0.582-1.682-1.094s-0.829-0.998-1.095-1.681c-0.2-0.515-0.439-1.289-0.504-2.715-0.070-1.542-0.084-2.005-0.084-5.912s0.014-4.367 0.084-5.909c0.065-1.426 0.304-2.2 0.504-2.716 0.265-0.683 0.583-1.17 1.095-1.682s1-0.829 1.682-1.095c0.516-0.201 1.29-0.439 2.716-0.504 1.349-0.061 1.872-0.079 4.599-0.082v0.004zM23.81 6.437c-0.969 0-1.756 0.785-1.756 1.755s0.786 1.755 1.756 1.755c0.969 0 1.755-0.786 1.755-1.755s-0.786-1.755-1.755-1.755zM16.001 8.488c-4.149 0-7.512 3.364-7.512 7.512s3.364 7.511 7.512 7.511c4.149 0 7.511-3.362 7.511-7.511s-3.363-7.512-7.511-7.512zM16.001 11.124c2.693 0 4.876 2.183 4.876 4.876s-2.183 4.876-4.876 4.876c-2.693 0-4.876-2.183-4.876-4.876s2.183-4.876 4.876-4.876z"></path>
</symbol>
<symbol id="icon-twitter" viewBox="0 0 38 32">
<path d="M18.050 8.812l0.081 1.329-1.343-0.163c-4.889-0.624-9.159-2.739-12.785-6.291l-1.773-1.763-0.457 1.302c-0.967 2.901-0.349 5.966 1.665 8.027 1.074 1.139 0.833 1.302-1.021 0.624-0.645-0.217-1.209-0.38-1.262-0.298-0.188 0.19 0.457 2.657 0.967 3.634 0.698 1.356 2.122 2.685 3.68 3.471l1.316 0.624-1.558 0.027c-1.504 0-1.558 0.027-1.397 0.597 0.537 1.763 2.659 3.634 5.023 4.447l1.665 0.569-1.45 0.868c-2.149 1.247-4.674 1.952-7.198 2.007-1.209 0.027-2.203 0.136-2.203 0.217 0 0.271 3.277 1.79 5.184 2.386 5.721 1.763 12.517 1.003 17.62-2.007 3.626-2.142 7.252-6.4 8.944-10.521 0.913-2.196 1.826-6.21 1.826-8.135 0-1.247 0.081-1.41 1.585-2.902 0.886-0.868 1.719-1.817 1.88-2.088 0.268-0.515 0.242-0.515-1.128-0.054-2.283 0.814-2.605 0.705-1.477-0.515 0.833-0.868 1.827-2.441 1.827-2.901 0-0.081-0.403 0.054-0.86 0.298-0.484 0.271-1.558 0.678-2.364 0.922l-1.45 0.461-1.316-0.895c-0.725-0.488-1.746-1.030-2.283-1.193-1.37-0.38-3.465-0.325-4.7 0.108-3.358 1.22-5.479 4.366-5.238 7.81z"></path>
</symbol>
<symbol id="icon-youtube" viewBox="0 0 45 32">
<path d="M38.403 2.799c1.762 0.484 3.15 1.909 3.621 3.718 0.856 3.28 0.856 10.123 0.856 10.123s0 6.843-0.856 10.123c-0.471 1.81-1.859 3.235-3.621 3.718-3.194 0.879-16.003 0.879-16.003 0.879s-12.809 0-16.003-0.879c-1.762-0.484-3.15-1.909-3.621-3.718-0.856-3.28-0.856-10.123-0.856-10.123s0-6.843 0.856-10.123c0.471-1.81 1.859-3.235 3.621-3.718 3.194-0.879 16.003-0.879 16.003-0.879s12.809 0 16.003 0.879zM18.56 10.88v12.8l10.24-6.4-10.24-6.4z"></path>
</symbol>
<symbol id="icon-logo" viewBox="0 0 35 32">
<path d="M0 0h35.122v32h-35.122v-32z"></path>
</symbol>
<symbol id="icon-triangle" viewBox="0 0 55 32">
<path fill="#fff" style="fill: var(--color1, #fff)" d="M54.857 0.914h-54.857l22.006 28.425c2.745 3.546 8.099 3.546 10.844 0l22.006-28.425z"></path>
</symbol>
<symbol id="icon-location-green" viewBox="0 0 32 32">
<path fill="#40a5a4" style="fill: var(--color1, #40a5a4); stroke: var(--color1, #40a5a4)" stroke="#40a5a4" stroke-linejoin="miter" stroke-linecap="butt" stroke-miterlimit="4" stroke-width="0.8" d="M15.999 0c-6.123 0-11.105 4.982-11.105 11.105 0 5.894 10.075 19.665 10.504 20.248l0.4 0.545c0.047 0.064 0.121 0.101 0.2 0.101 0.080 0 0.154-0.037 0.201-0.102l0.4-0.545c0.429-0.583 10.504-14.354 10.504-20.248 0-6.123-4.982-11.105-11.105-11.105zM15.999 7.127c2.194 0 3.978 1.784 3.978 3.978 0 2.193-1.784 3.978-3.978 3.978-2.193 0-3.978-1.785-3.978-3.978 0-2.194 1.785-3.978 3.978-3.978z"></path>
</symbol>
<symbol id="icon-location-violet" viewBox="0 0 32 32">
<path fill="#8167a4" style="fill: var(--color2, #8167a4); stroke: var(--color1, #40a5a4)" stroke="#40a5a4" stroke-linejoin="miter" stroke-linecap="butt" stroke-miterlimit="4" stroke-width="0.8" d="M15.999 0c-6.123 0-11.105 4.982-11.105 11.105 0 5.894 10.075 19.665 10.504 20.248l0.4 0.545c0.047 0.064 0.121 0.101 0.2 0.101 0.080 0 0.154-0.037 0.201-0.102l0.4-0.545c0.429-0.583 10.504-14.354 10.504-20.248 0-6.123-4.982-11.105-11.105-11.105zM15.999 7.127c2.194 0 3.978 1.784 3.978 3.978 0 2.193-1.784 3.978-3.978 3.978-2.193 0-3.978-1.785-3.978-3.978 0-2.194 1.785-3.978 3.978-3.978z"></path>
</symbol>
</defs>
</svg>
